# AST/ASF file generated using VICON BodyLanguage
# -----------------------------------------------
:version 1.10
:name VICON
:units
  mass 1.0
  length 0.45
  angle deg
:documentation
   .ast/.asf automatically generated from VICON data using
   VICON BodyBuilder and BodyLanguage model FoxedUp or BRILLIANT.MOD
:root
   order TX TY TZ RX RY RZ
   axis XYZ
   position 0 0 0  
   orientation 0 0 0 
:bonedata
  begin
     id 1 
     name lhipjoint
     direction 0.645893 -0.654526 0.392961 
     length 2.38111 
     axis 0 0 0  XYZ
  end
  begin
     id 2 
     name lfemur
     direction 0.34202 -0.939693 0  
     length 6.6822  
     axis 0 0 20  XYZ
    dof rx ry rz
    limits (-160.0 20.0)
           (-70.0 70.0)
           (-60.0 70.0)
  end
  begin
     id 3 
     name ltibia
     direction 0.34202 -0.939693 0   
     length 6.93904   
     axis 0 0 20   XYZ
    dof rx
    limits (-10.0 170.0)
  end
  begin
     id 4 
     name lfoot
     direction 0.0694967 -0.190941 0.979138   
     length 2.13616   
     axis -90 7.62852e-016 20   XYZ
    dof rx rz
    limits (-45.0 90.0)
           (-70.0 20.0)
  end
  begin
     id 5 
     name ltoes
     direction 1.535e-011 -4.2202e-011 1   
     length 1.07536   
     axis -90 7.62852e-016 20   XYZ
    dof rx
    limits (-90.0 20.0)
  end
  begin
     id 6 
     name rhipjoint
     direction -0.700219 -0.612087 0.367481   
     length 2.54621  
     axis 0 0 0  XYZ 
  end
  begin
     id 7 
     name rfemur
     direction -0.34202 -0.939693 0   
     length 6.55353   
     axis 0 0 -20   XYZ
    dof rx ry rz
    limits (-160.0 20.0)
           (-70.0 70.0)
           (-70.0 60.0)
  end
  begin
     id 8 
     name rtibia
     direction -0.34202 -0.939693 0   
     length 6.8736   
     axis 0 0 -20   XYZ
    dof rx
    limits (-10.0 170.0)
 end
 begin
     id 9 
     name rfoot
     direction -0.0679995 -0.186827 0.980037   
     length 2.1218  
     axis -90 -7.62852e-016 -20   XYZ
    dof rx rz
    limits (-45.0 90.0)
           (-20.0 70.0)
  end
  begin
     id 10 
     name rtoes
     direction -1.53589e-011 -4.21772e-011 1   
     length 1.06864   
     axis -90 -7.62852e-016 -20   XYZ
    dof rx
    limits (-90.0 20.0)
  end
  begin
     id 11 
     name lowerback
     direction -0.0416607 0.996347 -0.0745409   
     length 2.12205   
     axis 0 0 0   XYZ
    dof rx ry rz
    limits (-20.0 45.0)
           (-30.0 30.0)
           (-30.0 30.0)
  end
  begin
     id 12 
     name upperback
     direction -0.000153993 0.999276 -0.0380568   
     length 2.12759   
     axis 0 0 0   XYZ
    dof rx ry rz
    limits (-20.0 45.0)
           (-30.0 30.0)
           (-30.0 30.0)
  end
  begin
     id 13 
     name thorax
     direction 0.0187671 0.999821 -0.00241421   
     length 2.13704   
     axis 0 0 0   XYZ
    dof rx ry rz
    limits (-20.0 45.0)
           (-30.0 30.0)
           (-30.0 30.0)
  end
  begin
     id 14 
     name lowerneck
     direction 0.0268157 0.964865 0.261374   
     length 1.65253   
     axis 0 0 0   XYZ
    dof rx ry rz
    limits (-20.0 45.0)
           (-30.0 30.0)
           (-30.0 30.0)
  end
  begin
     id 15 
     name upperneck
     direction 0.00263774 0.939908 -0.341418   
     length 1.72375   
     axis 0 0 0   XYZ
    dof rx ry rz
    limits (-20.0 45.0)
           (-30.0 30.0)
           (-30.0 30.0)
  end
  begin
     id 16
     name head
     direction -0.00526001 0.989001 -0.147818  
     length 1.74878  
     axis 0 0 0   XYZ
    dof rx ry rz
    limits (-20.0 45.0)
           (-30.0 30.0)
           (-30.0 30.0)
  end
  begin
     id 17 
     name lclavicle
     direction 0.881214 0.461162 -0.103884  
     length 3.25108  
     axis 0 0 0   XYZ
    dof ry rz
    limits (-20.0 10.0)
           (0.0 20.0)
  end
  begin
     id 18 
     name lhumerus
     direction 1 -4.4899e-011 3.38092e-027   
     length 4.87408   
     axis 180 -30 -90   XYZ
    dof rx ry rz
    limits (-60.0 90.0)
           (-90.0 90.0)
           (-90.0 90.0)
  end
  begin
     id 19
     name lradius
     direction 1 -4.48931e-011 9.96288e-027   
     length 2.76729   
     axis 180 -30 -90   XYZ
    dof rx
    limits (-10.0 170.0)
  end
  begin
     id 20
     name lwrist
     direction 1 -4.4896e-011 1.50617e-026   
     length 1.38364   
     axis -9.31234e-015 90 90   XYZ
    dof ry
    limits (-180.0 0.0)
 end
  begin
     id 21 
     name lhand
     direction 1 -4.49038e-011 3.01286e-026   
     length 0.98922   
     axis -1.92217e-014 90 90   XYZ
    dof rx rz
    limits (-90.0 90.0)
           (-45.0 45.0)
  end
  begin
     id 22 
     name lfingers
     direction 1 -4.49051e-011 6.02588e-026   
     length 0.797535   
     axis -3.84436e-014 90 90   XYZ
    dof rx
    limits (0.0 90.0)
  end
  begin
     id 23
     name lthumb
     direction 0.707107 -6.34901e-011 0.707107   
     length 1.14511   
     axis -90 45 2.19363e-014   XYZ
    dof rx rz
    limits (-45.0 45.0)
           (-45.0 45.0)
  end
  begin
     id 24 
     name rclavicle
     direction -0.893894 0.441652 -0.0767889   
     length 3.29361  
     axis 0 0 0   XYZ 
    dof ry rz
    limits (-10.0 20.0)
           (-20.0 0.0)
  end
  begin
     id 25 
     name rhumerus
     direction -1 -4.48945e-011 8.0491e-028  
     length 4.71404   
     axis 180 30 90   XYZ
    dof rx ry rz
    limits (-90.0 60.0)
           (-90.0 90.0)
           (-90.0 90.0)
  end
  begin
     id 26 
     name rradius
     direction -1 -4.48986e-011 9.27795e-027   
     length 2.83468   
     axis 180 30 90   XYZ
    dof rx
    limits (-10.0 170.0)
  end
  begin
     id 27 
     name rwrist
     direction -1 -4.49029e-011 1.5064e-026   
     length 1.41734   
     axis -9.31234e-015 -90 -90   XYZ
    dof ry
    limits (-180.0 0.0)
  end
  begin
     id 28
     name rhand
     direction -1 -4.48857e-011 3.01165e-026   
     length 0.868195   
     axis -1.92217e-014 -90 -90   XYZ
    dof rx rz
    limits (-90.0 90.0)
           (-45.0 45.0)
  end
  begin
     id 29
     name rfingers
     direction -1 -4.49048e-011 6.02585e-026   
     length 0.699961   
     axis -3.84436e-014 -90 -90   XYZ
    dof rx
    limits (0.0 90.0)
  end
  begin
     id 30
     name rthumb
     direction -0.707107 -6.34854e-011 0.707107   
     length 1.00501   
     axis -90 -45 -2.19363e-014   XYZ
    dof rx rz
    limits (-45.0 45.0)
           (-45.0 45.0)
  end
:hierarchy
  begin
    root lhipjoint rhipjoint lowerback
    lhipjoint lfemur
    lfemur ltibia
    ltibia lfoot
    lfoot ltoes
    rhipjoint rfemur
    rfemur rtibia
    rtibia rfoot
    rfoot rtoes
    lowerback upperback
    upperback thorax
    thorax lowerneck lclavicle rclavicle
    lowerneck upperneck
    upperneck head
    lclavicle lhumerus
    lhumerus lradius
    lradius lwrist
    lwrist lhand lthumb
    lhand lfingers
    rclavicle rhumerus
    rhumerus rradius
    rradius rwrist
    rwrist rhand rthumb
    rhand rfingers
  end

#!OML:ASF H:\ManfredObstacles\Project 1\Capture day 2\Session 1\male.ASF
:FULLY-SPECIFIED
:DEGREES
16
root 1.35697 15.2654 29.9411 -181.264 3.95976 181.49
lowerback 2.2351 -1.35268 -1.08172
upperback 4.21742 -1.61623 0.397635
thorax 3.12382 -0.761695 1.00962
lowerneck -27.6266 1.8438 5.51142
upperneck 39.8225 4.87138 -3.70909
head 20.8079 3.07827 -1.28567
rclavicle -1.42876e-014 2.78299e-015
rhumerus -55.4014 4.79271 -86.0447
rradius 70.9272
rwrist 10.5091
rhand -11.8973 -6.82722
rfingers 7.12502
rthumb 14.156 -36.3249
lclavicle -1.42876e-014 2.78299e-015
lhumerus -52.9989 -14.5427 91.7874
lradius 82.0532
lwrist -20.6175
lhand -17.1936 10.6112
lfingers 7.12502
lthumb 9.04849 40.3971
rfemur -17.2987 2.50982 29.5635
rtibia 39.7415
rfoot -9.41274 -15.2578
rtoes -17.2757
lfemur -24.9046 4.60141 -16.8063
ltibia 88.8621
lfoot 13.3182 17.9441
ltoes -6.62808
17
root 1.36204 15.2553 29.7678 -181.382 3.85327 181.961
lowerback 2.51044 -1.14931 -0.609705
upperback 4.28683 -1.33316 0.446926
thorax 3.02231 -0.600954 0.802732
lowerneck -27.5796 1.68288 5.49172
upperneck 39.8376 4.59968 -3.60751
head 20.7757 2.99752 -1.29764
rclavicle -2.65378e-014 6.55989e-015
rhumerus -53.7481 4.80389 -86.9304
rradius 70.9112
rwrist 10.7021
rhand -12.1125 -6.64325
rfingers 7.12502
rthumb 13.9486 -36.1554
lclavicle -2.65378e-014 6.55989e-015
lhumerus -52.95 -13.8811 91.3213
lradius 81.5006
lwrist -20.3676
lhand -17.2554 10.7807
lfingers 7.12502
lthumb 8.98889 40.5692
rfemur -16.3718 2.27276 30.0936
rtibia 39.7653
rfoot -10.0875 -15.4735
rtoes -17.3282
lfemur -26.7096 4.14364 -16.218
ltibia 88.9389
lfoot 12.5524 18.751
ltoes -6.55279
18
root 1.36776 15.2496 29.5949 -181.494 3.78919 182.399
lowerback 2.75989 -0.921817 -0.20416
upperback 4.35893 -1.01532 0.505076
thorax 2.94374 -0.424991 0.639486
lowerneck -27.4592 1.52639 5.52586
upperneck 39.7929 4.33337 -3.57456
head 20.6885 2.91592 -1.35345
rclavicle -1.46355e-014 0
rhumerus -52.1499 4.91195 -87.7662
rradius 70.9758
rwrist 10.948
rhand -12.2481 -6.53972
rfingers 7.12502
rthumb 13.8179 -36.0608
lclavicle -1.46355e-014 0
lhumerus -52.8842 -13.3245 90.8983
lradius 80.9962
lwrist -20.2194
lhand -17.292 10.9246
lfingers 7.12502
lthumb 8.95362 40.7146
rfemur -15.3888 2.07285 30.584
rtibia 39.6561
rfoot -10.6622 -15.6421
rtoes -17.3543
lfemur -28.4155 3.72693 -15.6658
ltibia 88.669
lfoot 11.8918 19.4983
ltoes -6.41607
19
root 1.37474 15.2479 29.4216 -181.586 3.74654 182.752
lowerback 2.95854 -0.663985 0.0997361
upperback 4.42353 -0.656899 0.537043
thorax 2.89074 -0.232049 0.503497
lowerneck -27.2901 1.38999 5.6745
upperneck 39.6688 4.05867 -3.62131
head 20.5414 2.8329 -1.47276
rclavicle -4.96962e-015 -5.1684e-015
rhumerus -50.6345 5.05205 -88.5548
rradius 71.1142
rwrist 11.2275
rhand -12.3001 -6.50325
rfingers 7.12502
rthumb 13.7678 -36.0277
lclavicle -4.96962e-015 -5.1684e-015
lhumerus -52.8156 -12.9314 90.5018
lradius 80.5412
lwrist -20.1667
lhand -17.3096 11.1034
lfingers 7.12502
lthumb 8.9366 40.8942
rfemur -14.3856 1.90345 30.9846
rtibia 39.4445
rfoot -11.1496 -15.7885
rtoes -17.3798
lfemur -30.0295 3.3454 -15.2084
ltibia 88.0517
lfoot 11.3535 20.1656
ltoes -6.27768
20
root 1.38409 15.2502 29.2479 -181.638 3.66586 182.993
lowerback 3.0962 -0.399296 0.245894
upperback 4.45967 -0.293709 0.55255
thorax 2.847 -0.0429332 0.436817
lowerneck -27.1965 1.20509 5.73645
upperneck 39.6696 3.75392 -3.60518
head 20.4903 2.74214 -1.54951
rclavicle -1.07344e-014 -1.78906e-015
rhumerus -49.2397 5.24636 -89.2762
rradius 71.3299
rwrist 11.5324
rhand -12.2874 -6.48518
rfingers 7.12502
rthumb 13.78 -36.0088
lclavicle -1.07344e-014 -1.78906e-015
lhumerus -52.7799 -12.6699 90.1549
lradius 80.1508
lwrist -20.1329
lhand -17.3049 11.2922
lfingers 7.12502
lthumb 8.94111 41.0828
rfemur -13.3953 1.75823 31.2764
rtibia 39.1554
rfoot -11.5188 -15.98
rtoes -17.4706
lfemur -31.5731 2.95719 -14.8747
ltibia 87.0847
lfoot 10.9706 20.7027
ltoes -6.22133
21
root 1.39536 15.2576 29.0732 -181.634 3.56679 183.112
lowerback 3.15541 -0.113532 0.245532
upperback 4.46345 0.0915317 0.531389
thorax 2.81548 0.151158 0.413062
lowerneck -27.2103 0.966096 5.70798
upperneck 39.8062 3.39825 -3.50628
head 20.5496 2.63873 -1.57882
rclavicle -5.81445e-015 -9.54166e-015
rhumerus -47.979 5.43881 -89.9382
rradius 71.6136
rwrist 11.7902
rhand -12.2242 -6.35489
rfingers 7.12502
rthumb 13.841 -35.8744
lclavicle -5.81445e-015 -9.54166e-015
lhumerus -52.7812 -12.5654 89.8383
lradius 79.8217
lwrist -20.1246
lhand -17.2813 11.4745
lfingers 7.12502
lthumb 8.96388 41.264
rfemur -12.4417 1.65187 31.4452
rtibia 38.8033
rfoot -11.798 -16.1947
rtoes -17.5442
lfemur -33.0372 2.59141 -14.6795
ltibia 85.7693
lfoot 10.7287 21.115
ltoes -6.24883
22
root 1.40876 15.2704 28.8975 -181.567 3.41049 183.125
lowerback 3.16863 0.175562 0.125972
upperback 4.42506 0.475174 0.469669
thorax 2.76603 0.339284 0.413705
lowerneck -27.3068 0.655351 5.5234
upperneck 40.0876 2.97634 -3.26319
head 20.717 2.51856 -1.52109
rclavicle -2.6339e-015 -2.38542e-015
rhumerus -46.8546 5.6346 -90.5734
rradius 71.9901
rwrist 11.9647
rhand -12.1787 -6.25886
rfingers 7.12502
rthumb 13.8848 -35.7753
lclavicle -2.6339e-015 -2.38542e-015
lhumerus -52.8199 -12.598 89.5346
lradius 79.5554
lwrist -20.0841
lhand -17.2459 11.5878
lfingers 7.12502
lthumb 8.99802 41.3759
rfemur -11.5299 1.57316 31.512
rtibia 38.3825
rfoot -11.9868 -16.4567
rtoes -17.6739
lfemur -34.43 2.22981 -14.6059
ltibia 84.1127
lfoot 10.608 21.3861
ltoes -6.33804
23
root 1.42357 15.2895 28.7215 -181.423 3.24203 183.063
lowerback 3.15873 0.471615 -0.0671442
upperback 4.33475 0.862364 0.370845
thorax 2.6748 0.52549 0.416628
lowerneck -27.5932 0.289943 5.18712
upperneck 40.5554 2.50897 -2.87707
head 21.063 2.39076 -1.37071
rclavicle -5.26779e-015 6.36111e-015
rhumerus -45.865 5.82175 -91.1687
rradius 72.4388
rwrist 12.1489
rhand -12.0691 -6.07383
rfingers 7.12502
rthumb 13.9904 -35.5831
lclavicle -5.26779e-015 6.36111e-015
lhumerus -52.8972 -12.7306 89.234
lradius 79.3431
lwrist -19.997
lhand -17.1976 11.5623
lfingers 7.12502
lthumb 9.04466 41.3484
rfemur -10.6649 1.55172 31.5078
rtibia 37.8782
rfoot -12.0732 -16.7315
rtoes -17.8557
lfemur -35.7451 1.91936 -14.6229
ltibia 82.1195
lfoot 10.6249 21.4815
ltoes -6.47887
24
root 1.43817 15.3157 28.5426 -181.209 3.08789 182.96
lowerback 3.08922 0.775845 -0.27177
upperback 4.21444 1.25724 0.236278
thorax 2.58546 0.714551 0.389386
lowerneck -27.786 -0.0679986 4.86153
upperneck 40.966 2.03335 -2.45972
head 21.3553 2.26746 -1.20531
rclavicle -2.93207e-015 8.34896e-015
rhumerus -44.9829 6.01454 -91.7489
rradius 72.955
rwrist 12.2291
rhand -11.9922 -5.85296
rfingers 7.12502
rthumb 14.0646 -35.357
lclavicle -2.93207e-015 8.34896e-015
lhumerus -52.9883 -12.9458 88.9307
lradius 79.1768
lwrist -19.8558
lhand -17.1508 11.4322
lfingers 7.12502
lthumb 9.08979 41.2163
rfemur -9.81412 1.58851 31.4573
rtibia 37.2629
rfoot -12.0554 -16.9855
rtoes -18.1059
lfemur -36.9442 1.67575 -14.7024
ltibia 79.7987
lfoot 10.7382 21.4251
ltoes -6.59109
25
root 1.45236 15.3482 28.3613 -180.94 2.93669 182.862
lowerback 2.92979 1.07681 -0.445644
upperback 4.11226 1.64965 0.0880249
thorax 2.56584 0.903778 0.333426
lowerneck -27.9792 3.05028 2.77072
upperneck 41.3623 -0.195198 -0.188051
head 21.6217 -0.711073 -1.06664
rclavicle 6.60959e-015 1.19271e-015
rhumerus -44.1055 6.2074 -92.2733
rradius 73.4968
rwrist 12.2891
rhand -11.861 -5.56675
rfingers 7.12502
rthumb 14.191 -35.062
lclavicle 6.60959e-015 1.19271e-015
lhumerus -53.0072 -13.2111 88.6222
lradius 79.0278
lwrist -19.7085
lhand -17.1179 11.1956
lfingers 7.12502
lthumb 9.12161 40.9783
rfemur -8.9536 1.66002 31.4105
rtibia 36.5174
rfoot -11.9496 -17.2005
rtoes -18.4224
lfemur -38.0156 1.48003 -14.7925
ltibia 77.1693
lfoot 10.9686 21.1804
ltoes -6.69567
26
root 1.46577 15.3865 28.1766 -180.639 2.80214 182.794
lowerback 2.72373 1.37423 -0.570429
upperback 4.00398 2.03812 -0.0616335
thorax 2.56766 1.09217 0.250973
lowerneck -28.0416 2.80345 2.52683
upperneck 41.5375 -0.698951 0.194938
head 21.7579 -0.884346 -0.958765
rclavicle -8.54774e-015 -1.94809e-014
rhumerus -43.2559 6.41201 -92.7612
rradius 74.0158
rwrist 12.2503
rhand -11.7479 -5.26752
rfingers 7.12502
rthumb 14.2999 -34.7551
lclavicle -8.54774e-015 -1.94809e-014
lhumerus -53.016 -13.5065 88.3245
lradius 78.8918
lwrist -19.5771
lhand -17.0914 10.9368
lfingers 7.12502
lthumb 9.14714 40.7185
rfemur -8.0483 1.75975 31.3895
rtibia 35.6277
rfoot -11.7358 -17.3686
rtoes -18.7942
lfemur -38.9225 1.32657 -14.8659
ltibia 74.2556
lfoot 11.2926 20.7411
ltoes -6.78887
